<svg xmlns="http://www.w3.org/2000/svg" width="20" height="20" fill="none" viewBox="0 0 20 20"><g fill="#000" opacity=".3"><path d="M7.8 12c.3 0 .5-.2.5-.5S8 11 7.7 11s-.5.2-.5.5.3.5.5.5Z"/><path d="M17 4h-2V2h-1v2H6V2H5v2H3c-.6 0-1 .4-1 1v11c0 .5.4 1 1 1h14c.5 0 1-.5 1-1V5c0-.6-.5-1-1-1Zm0 12H3V9h14v7ZM3 8V5h2v2h1V5h8v2h1V5h2v3H3Z"/><path d="M10 12c.3 0 .5-.2.5-.5s-.2-.5-.5-.5-.5.2-.5.5.2.5.5.5Zm2.3 0c.3 0 .4-.2.4-.5s-.1-.5-.4-.5c-.4 0-.6.2-.6.5s.3.5.6.5Zm-4.5 1c-.3 0-.5.2-.5.5s.2.5.5.5.5-.2.5-.5-.3-.5-.6-.5Zm-2.3-1c.3 0 .5-.2.5-.5s-.2-.5-.5-.5-.5.2-.5.5.2.5.5.5Zm0 1c-.3 0-.5.2-.5.5s.2.5.5.5.5-.2.5-.5-.2-.5-.5-.5Zm4.5 0c-.3 0-.5.2-.5.5s.2.5.5.5.5-.2.5-.5-.2-.5-.5-.5Zm2.3 0c-.4 0-.6.2-.6.5s.3.5.6.5.4-.2.4-.5-.1-.5-.4-.5Zm2.2-1c.3 0 .5-.2.5-.5s-.2-.5-.5-.5-.5.2-.5.5.2.5.5.5Zm0 1c-.3 0-.5.2-.5.5s.2.5.5.5.5-.2.5-.5-.2-.5-.5-.5Z"/></g></svg>
