<svg xmlns="http://www.w3.org/2000/svg" width="76" height="72" fill="none" viewBox="0 0 76 72"><path fill="#83B3D3" d="M30.2 65h15.9V41.2H30.2V65Zm2.9-20.9h10v18h-10v-18Z"/><path fill="#83B3D3" d="m73 39.3 2-2.1-9.8-9.9V0H51.4v13.6L38 0 1 37.2l2 2.1 7.8-7.8v37.6h-4V72h63.3v-2.9h-5V31.5l7.8 7.8ZM62.1 69.1H13.7V28.5L38 4.1l24.2 24.4v40.6Zm0-44.7-7.8-7.9V2.9h7.8v21.5Z"/><path fill="#83B3D3" d="M30.4 27.1a7.7 7.7 0 1 0 15.4 0 7.7 7.7 0 1 0-15.4 0Zm7.7-5a5 5 0 0 1 5 4.9 5 5 0 0 1-5 4.9 5 5 0 0 1-4.9-4.9 5 5 0 0 1 5-4.9ZM20.7 41.2h-3v3.9h3v-3.9ZM26.6 41.2h-3v3.9h3v-3.9ZM20.7 47.2h-3v3.9h3v-3.9ZM26.6 47.2h-3v3.9h3v-3.9ZM52.3 41.2h-3v3.9h3v-3.9ZM58.2 41.2h-3v3.9h3v-3.9ZM52.3 47.2h-3v3.9h3v-3.9ZM58.2 47.2h-3v3.9h3v-3.9Z"/></svg>
