<svg xmlns="http://www.w3.org/2000/svg" width="75" height="72" fill="none" viewBox="0 0 75 72"><g fill="#83B3D3" clip-path="url(#a)"><path d="M71 48H4.2C1.8 48 0 50 0 52.5V56c0 2.4 2 4.4 4.2 4.4H5v1.1C5 67.3 9.4 72 14.8 72h45.4c5.3 0 9.7-4.6 9.7-10.4v-1.1h1c2.3 0 4-2 4-4.4v-3.6A4.1 4.1 0 0 0 71 48Zm-4 13.6c0 4-3 7.2-6.7 7.2H14.8c-3.7 0-6.8-3.3-6.8-7.2v-1.1h59v1.1Zm5.2-5.5c0 .7-.6 1.3-1.2 1.3H4c-.6 0-1.2-.6-1.2-1.3v-3.6c0-.8.7-1.4 1.3-1.4h66.8c.7 0 1.2.6 1.2 1.4l.1 3.6ZM15.9 39.5l5.4 4.2 5.4-4.2 5.4 4.2 5.4-4.2 5.5 4.2 5.4-4.2 5.3 4.2 5.5-4.2 5.4 4.2L71 39l-1.7-2.6-4.6 3.5-5.4-4.2-5.5 4.2-5.3-4.2-5.4 4.2-5.5-4.2-5.4 4.2-5.4-4.2-5.4 4.2-5.4-4.2-5.4 4.2-4.6-3.5L4.2 39l6.3 4.8 5.4-4.2ZM8.1 32.4H70l.1-2v-1.2A31.7 31.7 0 0 0 37.6 0C20 0 5.8 13 5 29.3V32.4h3ZM37.6 3.1C53.4 3 66.5 14.7 67 29.3H8C8.7 14.8 21.7 3.1 37.6 3.1Z"/><path d="M37.6 17.8c1 0 2-1 2-2 0-1.2-1-2.1-2-2.1s-2 .9-2 2c0 1.2 1 2 2 2ZM29.7 12.5c1 0 1.9-.9 1.9-2s-.9-2-2-2c-1 0-1.9.9-1.9 2s.9 2 2 2ZM45.4 12.5c1 0 2-.9 2-2s-1-2-2-2-2 .9-2 2 1 2 2 2Z"/></g><defs><clipPath id="a"><path fill="#fff" d="M0 0h75v72H0z"/></clipPath></defs></svg>
