<svg xmlns="http://www.w3.org/2000/svg" width="75" height="72" fill="none" viewBox="0 0 75 72"><path fill="#83B3D3" d="M67 21.3H41.9c14-6.6 15.1-10.7 14.6-13a8.2 8.2 0 0 0-10.2-5.1c-5.7 2-7.2 9.8-8.7 15.5-2-5.8-3.9-13-8.3-16.8a7.7 7.7 0 0 0-6-1.9c-4 .4-9.9 5.2-7.5 10.5 2.3 5 9.8 8.3 14.8 10.9H7.9C6.3 21.4 5 22.6 5 24v10.7c0 1.6 1.3 2.8 3 2.8h.3V72H67V37.5c1.7 0 3-1.2 3-2.8V24c0-1.5-1.3-2.7-3-2.7ZM48 5.5c2.2-.2 5.1 1.3 5.4 3 .5 2.7-3.4 5.1-5.1 6.1-2.6 1.7-5 2.5-7.4 4 .9-3.6 2.5-12.4 7.2-13ZM24.9 15c-2.2-1.4-6.6-4.1-6.5-7.4.1-3.4 5.8-6.2 9-3.7 3.9 3.3 5.7 10.6 7.2 15.8-3.3-1.5-6.4-2.7-9.7-4.7Zm6.1 54.2H11.2V37.5h19.7v31.7Zm0-34.6H8V24H31v10.5Zm10.4 0v34.6h-7.4v-45h7.4v10.4Zm22.6 34.6H44.2V37.5h19.7v31.7Zm3-34.6H44.2V24h22.7v10.5Z"/></svg>
